Coordinates
version=1
nRows=21
nColumns=24
inDegrees=yes

Units are S.I. units (second, meters, Newtons, ...)
If the header above contains a line with 'inDegrees', this indicates whether rotational values are in degrees (yes) or radians (no).

endheader
time	pelvis_tilt	pelvis_list	pelvis_rotation	pelvis_tx	pelvis_ty	pelvis_tz	hip_flexion_r	hip_adduction_r	hip_rotation_r	knee_angle_r	ankle_angle_r	subtalar_angle_r	mtp_angle_r	hip_flexion_l	hip_adduction_l	hip_rotation_l	knee_angle_l	ankle_angle_l	subtalar_angle_l	mtp_angle_l	lumbar_extension	lumbar_bending	lumbar_rotation
3.400000	10.960891	1.633362	-180.446558	0.220999	0.852082	-1.204999	17.161880	-10.711557	-34.719291	-12.101912	0.137953	13.168657	0.000000	17.384436	-14.800143	-33.559124	-12.843137	1.496563	17.105318	0.000000	3.827346	1.689594	1.304956
3.405000	10.959938	1.632447	-180.452696	0.221036	0.852053	-1.204970	17.166511	-10.714410	-34.723123	-12.103073	0.140658	13.166194	0.000000	17.389502	-14.790962	-33.564393	-12.840093	1.498507	17.100735	0.000000	3.824596	1.702006	1.304653
3.410000	10.963566	1.641170	-180.481499	0.221057	0.852067	-1.204961	17.197403	-10.712239	-34.737972	-12.149455	0.160834	13.156871	0.000000	17.384144	-14.801368	-33.572284	-12.831323	1.493203	17.075654	0.000000	3.828631	1.721131	1.327291
3.415000	10.963184	1.635672	-180.501525	0.221045	0.852122	-1.204930	17.202431	-10.715139	-34.737208	-12.150633	0.161072	13.158131	0.000000	17.375359	-14.805417	-33.559967	-12.844469	1.488573	17.079995	0.000000	3.833453	1.727139	1.328842
3.420000	10.956368	1.645661	-180.505042	0.221104	0.852140	-1.204975	17.206951	-10.705292	-34.726937	-12.168604	0.166364	13.167256	0.000000	17.382242	-14.827499	-33.546167	-12.866149	1.483426	17.070930	0.000000	3.820259	1.729476	1.351593
3.425000	10.956975	1.675682	-180.508141	0.221149	0.852182	-1.205003	17.235252	-10.683759	-34.842108	-12.247420	0.035580	13.111275	0.000000	17.401421	-14.857839	-33.573121	-12.879121	1.498574	17.011965	0.000000	3.824625	1.760283	1.366138
3.430000	10.950752	1.649857	-180.471578	0.221190	0.852122	-1.205050	17.186939	-10.696900	-34.713223	-12.147273	0.118937	13.177237	0.000000	17.422385	-14.837566	-33.544176	-12.913664	1.510712	16.994419	0.000000	3.816423	1.716073	1.307329
3.435000	10.948360	1.649537	-180.471748	0.221206	0.852137	-1.205049	17.187560	-10.696769	-34.713277	-12.147559	0.119154	13.177084	0.000000	17.422743	-14.837042	-33.544076	-12.914239	1.510515	16.994139	0.000000	3.817150	1.716719	1.307868
3.440000	10.939980	1.659956	-180.501949	0.221199	0.852140	-1.205025	17.198396	-10.689482	-34.700596	-12.179444	0.154628	13.169123	0.000000	17.410277	-14.855852	-33.569851	-12.923823	1.496875	16.923892	0.000000	3.816462	1.741846	1.356196
3.445000	10.937323	1.656808	-180.514827	0.221202	0.852126	-1.204989	17.202130	-10.694223	-34.702457	-12.182516	0.155552	13.166484	0.000000	17.405941	-14.852140	-33.564123	-12.929630	1.494172	16.924329	0.000000	3.817488	1.753656	1.355898
3.450000	10.929359	1.647203	-180.522180	0.221253	0.852082	-1.204998	17.210851	-10.707962	-34.686870	-12.210426	0.150216	13.168514	0.000000	17.406837	-14.842864	-33.521565	-12.949632	1.493876	16.934351	0.000000	3.807119	1.749608	1.364091
3.455000	10.928823	1.626520	-180.511408	0.221314	0.852044	-1.205020	17.206728	-10.726975	-34.666056	-12.194056	0.146790	13.174760	0.000000	17.422059	-14.822879	-33.485555	-12.972913	1.513701	16.938544	0.000000	3.807715	1.725698	1.348254
3.460000	10.924341	1.624119	-180.502591	0.221343	0.852043	-1.205054	17.203494	-10.730814	-34.657686	-12.199983	0.146463	13.175204	0.000000	17.423215	-14.819254	-33.476932	-12.973101	1.520524	16.939881	0.000000	3.813788	1.720006	1.341540
3.465000	10.915372	1.615961	-180.495864	0.221381	0.852059	-1.205031	17.200524	-10.742933	-34.645768	-12.207545	0.159100	13.169984	0.000000	17.430821	-14.816626	-33.469557	-12.998773	1.539988	16.922688	0.000000	3.804337	1.712215	1.324143
3.470000	10.911517	1.617430	-180.501351	0.221390	0.852083	-1.205004	17.201231	-10.744268	-34.646530	-12.211323	0.162859	13.167409	0.000000	17.426260	-14.815528	-33.468335	-12.998756	1.541414	16.920400	0.000000	3.811057	1.722016	1.323284
3.475000	10.908363	1.616098	-180.500760	0.221425	0.852072	-1.205012	17.202675	-10.743392	-34.646698	-12.211472	0.163112	13.167268	0.000000	17.425767	-14.816348	-33.468581	-12.999246	1.541676	16.919707	0.000000	3.812357	1.722319	1.323084
3.480000	10.894440	1.610877	-180.499007	0.221458	0.852047	-1.205063	17.194198	-10.747810	-34.638748	-12.220570	0.178073	13.163163	0.000000	17.431991	-14.822691	-33.455750	-13.042383	1.558836	16.906693	0.000000	3.807981	1.713153	1.319156
3.485000	10.888951	1.608426	-180.502781	0.221481	0.852041	-1.205071	17.191730	-10.751073	-34.636752	-12.221724	0.178829	13.162362	0.000000	17.428728	-14.821068	-33.453348	-13.046156	1.562119	16.905016	0.000000	3.816504	1.719089	1.316705
3.490000	10.881751	1.602228	-180.519727	0.221504	0.852082	-1.205080	17.201413	-10.756338	-34.630587	-12.242972	0.192065	13.144602	0.000000	17.419088	-14.827818	-33.408007	-13.074367	1.596017	16.902990	0.000000	3.817894	1.723268	1.323003
3.495000	10.881352	1.612824	-180.544046	0.221542	0.852082	-1.205040	17.223801	-10.750740	-34.631070	-12.275615	0.195810	13.135696	0.000000	17.423641	-14.829772	-33.424301	-13.068689	1.586141	16.872388	0.000000	3.820599	1.759457	1.332159
3.500000	10.885699	1.625639	-180.559672	0.221574	0.852094	-1.205078	17.234242	-10.729060	-34.597431	-12.274489	0.194999	13.129705	0.000000	17.440654	-14.853443	-33.420925	-13.092534	1.574226	16.767252	0.000000	3.834972	1.769292	1.371967
